HIERARCHY
ROOT Hips
{
  OFFSET 0.000 68.913 0.000
  CHANNELS 6 Xposition Yposition Zposition Zrotation Xrotation Yrotation
  JOINT LeftUpLeg
  {
    OFFSET 7.294 1.049 3.300
    CHANNELS 6 Xposition Yposition Zposition Zrotation Xrotation Yrotation
    JOINT LeftLeg
    {
      OFFSET 0.000 -37.108 0.000
      CHANNELS 6 Xposition Yposition Zposition Zrotation Xrotation Yrotation
      JOINT LeftFoot
      {
        OFFSET 0.000 -32.853 0.000
        CHANNELS 6 Xposition Yposition Zposition Zrotation Xrotation Yrotation
        End Site
        {
          OFFSET 0.000 0.000 9.991
        }
      }
    }
  }
  JOINT RightUpLeg
  {
    OFFSET -7.294 1.049 3.300
    CHANNELS 6 Xposition Yposition Zposition Zrotation Xrotation Yrotation
    JOINT RightLeg
    {
      OFFSET 0.000 -37.108 0.000
      CHANNELS 6 Xposition Yposition Zposition Zrotation Xrotation Yrotation
      JOINT RightFoot
      {
        OFFSET 0.000 -32.853 0.000
        CHANNELS 6 Xposition Yposition Zposition Zrotation Xrotation Yrotation
        End Site
        {
          OFFSET 0.000 0.000 9.991
        }
      }
    }
  }
  JOINT Spine
  {
    OFFSET 0.000 30.651 0.000
    CHANNELS 6 Xposition Yposition Zposition Zrotation Xrotation Yrotation
    JOINT Spine1
    {
      OFFSET 0.000 22.671 0.000
      CHANNELS 6 Xposition Yposition Zposition Zrotation Xrotation Yrotation
      JOINT LeftShoulder
      {
        OFFSET 1.642 -0.415 0.120
        CHANNELS 6 Xposition Yposition Zposition Zrotation Xrotation Yrotation
        JOINT LeftArm
        {
          OFFSET 15.330 0.000 0.000
          CHANNELS 6 Xposition Yposition Zposition Zrotation Xrotation Yrotation
          JOINT LeftForeArm
          {
            OFFSET 25.943 0.000 0.000
            CHANNELS 6 Xposition Yposition Zposition Zrotation Xrotation Yrotation
            JOINT LeftHand
            {
              OFFSET 22.866 0.000 0.000
              CHANNELS 6 Xposition Yposition Zposition Zrotation Xrotation Yrotation
              JOINT LeftHandThumb1
              {
                OFFSET 0.000 0.000 0.000
                CHANNELS 6 Xposition Yposition Zposition Zrotation Xrotation Yrotation
                JOINT LeftHandThumb2
                {
                  OFFSET 0.000 0.000 0.000
                  CHANNELS 6 Xposition Yposition Zposition Zrotation Xrotation Yrotation
                  JOINT LeftHandThumb3
                  {
                    OFFSET 0.000 0.000 0.000
                    CHANNELS 6 Xposition Yposition Zposition Zrotation Xrotation Yrotation
                    End Site
                    {
                      OFFSET 0.000 0.000 0.000
                    }
                  }
                }
              }
              JOINT LeftHandIndex1
              {
                OFFSET 0.000 0.000 0.000
                CHANNELS 6 Xposition Yposition Zposition Zrotation Xrotation Yrotation
                JOINT LeftHandIndex2
                {
                  OFFSET 0.000 0.000 0.000
                  CHANNELS 6 Xposition Yposition Zposition Zrotation Xrotation Yrotation
                  JOINT LeftHandIndex3
                  {
                    OFFSET 0.000 0.000 0.000
                    CHANNELS 6 Xposition Yposition Zposition Zrotation Xrotation Yrotation
                    End Site
                    {
                      OFFSET 0.000 0.000 0.000
                    }
                  }
                }
              }
              JOINT LeftHandMiddle1
              {
                OFFSET 0.000 0.000 0.000
                CHANNELS 6 Xposition Yposition Zposition Zrotation Xrotation Yrotation
                JOINT LeftHandMiddle2
                {
                  OFFSET 0.000 0.000 0.000
                  CHANNELS 6 Xposition Yposition Zposition Zrotation Xrotation Yrotation
                  JOINT LeftHandMiddle3
                  {
                    OFFSET 0.000 0.000 0.000
                    CHANNELS 6 Xposition Yposition Zposition Zrotation Xrotation Yrotation
                    End Site
                    {
                      OFFSET 0.000 0.000 0.000
                    }
                  }
                }
              }
              JOINT LeftHandRing1
              {
                OFFSET 0.000 0.000 0.000
                CHANNELS 6 Xposition Yposition Zposition Zrotation Xrotation Yrotation
                JOINT LeftHandRing2
                {
                  OFFSET 0.000 0.000 0.000
                  CHANNELS 6 Xposition Yposition Zposition Zrotation Xrotation Yrotation
                  JOINT LeftHandRing3
                  {
                    OFFSET 0.000 0.000 0.000
                    CHANNELS 6 Xposition Yposition Zposition Zrotation Xrotation Yrotation
                    End Site
                    {
                      OFFSET 0.000 0.000 0.000
                    }
                  }
                }
              }
              JOINT LeftHandPinky1
              {
                OFFSET 0.000 0.000 0.000
                CHANNELS 6 Xposition Yposition Zposition Zrotation Xrotation Yrotation
                JOINT LeftHandPinky2
                {
                  OFFSET 0.000 0.000 0.000
                  CHANNELS 6 Xposition Yposition Zposition Zrotation Xrotation Yrotation
                  JOINT LeftHandPinky3
                  {
                    OFFSET 0.000 0.000 0.000
                    CHANNELS 6 Xposition Yposition Zposition Zrotation Xrotation Yrotation
                    End Site
                    {
                      OFFSET 0.000 0.000 0.000
                    }
                  }
                }
              }
            }
          }
        }
      }
      JOINT RightShoulder
      {
        OFFSET -1.642 -0.415 0.120
        CHANNELS 6 Xposition Yposition Zposition Zrotation Xrotation Yrotation
        JOINT RightArm
        {
          OFFSET -15.330 0.000 0.000
          CHANNELS 6 Xposition Yposition Zposition Zrotation Xrotation Yrotation
          JOINT RightForeArm
          {
            OFFSET -25.943 0.000 0.000
            CHANNELS 6 Xposition Yposition Zposition Zrotation Xrotation Yrotation
            JOINT RightHand
            {
              OFFSET -22.866 0.000 0.000
              CHANNELS 6 Xposition Yposition Zposition Zrotation Xrotation Yrotation
              JOINT RightHandThumb1
              {
                OFFSET -0.000 0.000 0.000
                CHANNELS 6 Xposition Yposition Zposition Zrotation Xrotation Yrotation
                JOINT RightHandThumb2
                {
                  OFFSET -0.000 0.000 0.000
                  CHANNELS 6 Xposition Yposition Zposition Zrotation Xrotation Yrotation
                  JOINT RightHandThumb3
                  {
                    OFFSET -0.000 0.000 0.000
                    CHANNELS 6 Xposition Yposition Zposition Zrotation Xrotation Yrotation
                    End Site
                    {
                      OFFSET -0.000 0.000 0.000
                    }
                  }
                }
              }
              JOINT RightHandIndex1
              {
                OFFSET -0.000 0.000 0.000
                CHANNELS 6 Xposition Yposition Zposition Zrotation Xrotation Yrotation
                JOINT RightHandIndex2
                {
                  OFFSET -0.000 0.000 0.000
                  CHANNELS 6 Xposition Yposition Zposition Zrotation Xrotation Yrotation
                  JOINT RightHandIndex3
                  {
                    OFFSET -0.000 0.000 0.000
                    CHANNELS 6 Xposition Yposition Zposition Zrotation Xrotation Yrotation
                    End Site
                    {
                      OFFSET -0.000 0.000 0.000
                    }
                  }
                }
              }
              JOINT RightHandMiddle1
              {
                OFFSET -0.000 0.000 0.000
                CHANNELS 6 Xposition Yposition Zposition Zrotation Xrotation Yrotation
                JOINT RightHandMiddle2
                {
                  OFFSET -0.000 0.000 0.000
                  CHANNELS 6 Xposition Yposition Zposition Zrotation Xrotation Yrotation
                  JOINT RightHandMiddle3
                  {
                    OFFSET -0.000 0.000 0.000
                    CHANNELS 6 Xposition Yposition Zposition Zrotation Xrotation Yrotation
                    End Site
                    {
                      OFFSET -0.000 0.000 0.000
                    }
                  }
                }
              }
              JOINT RightHandRing1
              {
                OFFSET -0.000 0.000 0.000
                CHANNELS 6 Xposition Yposition Zposition Zrotation Xrotation Yrotation
                JOINT RightHandRing2
                {
                  OFFSET -0.000 0.000 0.000
                  CHANNELS 6 Xposition Yposition Zposition Zrotation Xrotation Yrotation
                  JOINT RightHandRing3
                  {
                    OFFSET -0.000 0.000 0.000
                    CHANNELS 6 Xposition Yposition Zposition Zrotation Xrotation Yrotation
                    End Site
                    {
                      OFFSET -0.000 0.000 0.000
                    }
                  }
                }
              }
              JOINT RightHandPinky1
              {
                OFFSET -0.000 0.000 0.000
                CHANNELS 6 Xposition Yposition Zposition Zrotation Xrotation Yrotation
                JOINT RightHandPinky2
                {
                  OFFSET -0.000 0.000 0.000
                  CHANNELS 6 Xposition Yposition Zposition Zrotation Xrotation Yrotation
                  JOINT RightHandPinky3
                  {
                    OFFSET -0.000 0.000 0.000
                    CHANNELS 6 Xposition Yposition Zposition Zrotation Xrotation Yrotation
                    End Site
                    {
                      OFFSET -0.000 0.000 0.000
                    }
                  }
                }
              }
            }
          }
        }
      }
      JOINT Neck
      {
        OFFSET 0.000 0.750 0.000
        CHANNELS 6 Xposition Yposition Zposition Zrotation Xrotation Yrotation
        JOINT Head
        {
          OFFSET 0.000 6.919 0.000
          CHANNELS 6 Xposition Yposition Zposition Zrotation Xrotation Yrotation
          End Site
          {
            OFFSET 0.000 15.918 0.000
          }
        }
      }
    }
  }
}
MOTION
Frames:	4
Frame Time:	0.033333
3.08258 44.14800 -246.90694 22.54898 21.52193 -23.22539 9.21367 3.33405 2.65673 101.98764 -54.41775 87.62231 0.02668 -34.67287 0.01081 -113.30338 68.64397 87.10165 -0.04105 -37.15926 0.03224 0.25783 4.43207 -8.83753 -6.25239 0.95956 2.67182 -158.16913 -59.89785 -114.04285 0.08696 -34.37217 0.02634 129.87006 52.09230 -116.92609 0.01447 -37.19553 -0.03417 0.86867 8.60133 5.72791 -0.02604 31.63779 -0.05030 -0.67179 1.45828 -0.90265 -0.03647 23.87352 -0.04595 -1.13942 1.99332 -0.50813 1.46653 -0.11471 0.16766 -6.02203 0.82850 -7.22317 13.61998 -0.04239 0.01951 -49.25689 5.20094 -14.41373 24.68057 -0.00208 0.04583 -20.35467 -2.52502 -35.44391 22.68102 0.01926 0.07512 -2.44667 -20.80774 6.41480 4.87700 -1.04399 3.60799 -41.57576 -8.45901 -7.72681 2.66501 0.00001 -0.00002 0.00000 0.00000 4.99816 2.54300 -0.00001 0.00000 -0.00000 0.00000 59.99851 9.23200 -0.30100 2.14400 -79.99823 0.00000 -0.00000 4.22500 -0.00000 -0.00002 -89.99803 0.00000 -0.00000 2.65400 0.00001 0.00000 -69.99846 0.00000 0.00000 8.92000 0.00001 0.00000 -79.99803 -0.00000 -0.00000 4.86300 0.00000 0.00000 -89.99780 -0.00000 0.00000 2.76501 0.00000 0.00000 -69.99834 -0.00000 0.00000 8.68900 -0.12600 -2.08700 -79.99803 -0.00000 -0.00000 4.53801 0.00001 -0.00002 -89.99780 -0.00000 0.00000 2.30500 -0.00000 0.00000 -69.99834 -0.00000 0.00000 8.39099 -0.81699 -3.75803 -79.99823 0.00000 -0.00000 3.04399 -0.00001 0.00002 -89.99803 0.00000 -0.00000 1.97499 0.00001 -0.00002 -69.99846 0.00000 0.00000 -1.42565 -1.05234 0.16469 37.83349 4.82145 6.15644 -16.14366 -0.13688 0.07431 47.43494 7.08916 12.06929 -21.35565 0.00206 0.02539 10.11219 -1.01705 71.88802 -29.89634 0.02368 0.00340 -80.44430 -2.81538 -24.32317 -4.87700 -1.04400 3.60799 40.90313 11.75657 -3.90802 -2.66502 -0.00001 -0.00001 0.00000 0.00000 -5.00537 -2.54300 0.00000 -0.00002 0.00000 -0.00000 -59.99577 -9.23200 -0.30100 2.14398 -1.99735 -0.00000 0.00001 -4.22499 -0.00001 -0.00005 -1.99703 -0.00000 0.00001 -2.65402 0.00001 0.00000 -1.99767 -0.00142 0.00537 -8.91999 0.00001 -0.00002 79.99654 -0.00000 0.00001 -4.86300 0.00000 0.00000 89.99626 -0.00000 0.00001 -2.76500 -0.00001 -0.00002 69.99623 0.00504 0.00490 -8.68899 -0.12600 -2.08704 79.99654 -0.00000 0.00001 -4.53801 -0.00001 0.00002 89.99626 -0.00000 0.00001 -2.30501 -0.00001 -0.00002 69.99623 0.00504 0.00490 -8.39101 -0.81700 -3.75800 -1.99735 -0.00000 0.00001 -3.04400 0.00000 -0.00005 -1.99703 -0.00000 0.00001 -1.97499 -0.00001 0.00000 -1.99767 -0.00142 0.00537 0.00001 0.80106 0.00001 0.00000 -0.00000 -0.00001 -0.04592 7.25195 -0.03284 32.51270 -8.03153 -0.15792 
2.59360 45.09233 -246.60539 22.48182 20.71071 -22.96586 9.06004 3.26376 2.69874 99.23123 -54.31219 84.37338 0.02837 -34.65162 0.00983 -108.62290 68.50578 80.66121 -0.04056 -37.18122 0.03170 0.28076 4.20491 -8.19212 -6.09430 0.93996 2.70581 -155.24055 -60.83258 -111.94656 0.07847 -34.33402 0.01742 128.66112 53.31085 -113.85321 0.02197 -37.21097 -0.03381 0.68186 6.92290 5.28251 -0.02640 31.89001 -0.05068 -0.75391 1.46806 -1.09032 -0.03150 24.03327 -0.04643 -1.16448 1.99638 -0.71409 1.47085 -0.11122 0.16250 -6.22639 0.82920 -7.23588 13.65315 -0.03720 0.01787 -49.81690 5.85235 -14.55284 25.10414 -0.01332 0.04940 -19.79081 -2.50846 -34.63845 22.50090 0.00226 0.07504 -1.70859 -21.28684 7.94575 4.87700 -1.04399 3.60799 -41.57577 -8.45900 -7.72682 2.66501 0.00001 -0.00002 0.00000 0.00000 4.99817 2.54300 -0.00001 0.00000 -0.00000 0.00000 59.99852 9.23200 -0.30100 2.14400 -79.99825 0.00000 -0.00000 4.22500 -0.00000 -0.00002 -89.99804 0.00000 -0.00000 2.65400 0.00001 0.00000 -69.99847 0.00000 0.00000 8.92000 0.00001 0.00000 -79.99803 -0.00000 -0.00000 4.86300 0.00000 0.00000 -89.99780 -0.00000 0.00000 2.76501 0.00000 0.00000 -69.99834 -0.00000 0.00000 8.68900 -0.12600 -2.08700 -79.99803 -0.00000 -0.00000 4.53801 0.00001 -0.00002 -89.99780 -0.00000 0.00000 2.30500 -0.00000 0.00000 -69.99834 -0.00000 0.00000 8.39099 -0.81699 -3.75803 -79.99825 0.00000 -0.00000 3.04399 -0.00001 0.00002 -89.99804 0.00000 -0.00000 1.97499 0.00001 -0.00002 -69.99847 0.00000 0.00000 -1.42623 -1.05548 0.16258 37.94003 4.81350 6.14504 -16.21440 -0.12317 0.07233 47.93794 7.19039 12.54111 -21.40474 0.00192 0.02356 11.07744 -1.45476 69.86279 -29.00689 0.00627 0.04507 -74.93138 4.43988 -23.09301 -4.87700 -1.04400 3.60799 40.90318 11.75654 -3.90806 -2.66502 -0.00001 -0.00001 0.00000 0.00000 -5.00537 -2.54300 0.00000 -0.00002 0.00000 -0.00000 -59.99577 -9.23200 -0.30100 2.14398 -1.99738 -0.00000 0.00001 -4.22499 -0.00001 -0.00005 -1.99706 -0.00000 0.00001 -2.65402 0.00001 0.00000 -1.99769 -0.00142 0.00537 -8.91999 0.00001 -0.00002 79.99654 -0.00000 0.00001 -4.86300 0.00000 0.00000 89.99626 -0.00000 0.00001 -2.76500 -0.00001 -0.00002 69.99623 0.00504 0.00490 -8.68899 -0.12600 -2.08704 79.99654 -0.00000 0.00001 -4.53801 -0.00001 0.00002 89.99626 -0.00000 0.00001 -2.30501 -0.00001 -0.00002 69.99623 0.00504 0.00490 -8.39101 -0.81700 -3.75800 -1.99738 -0.00000 0.00001 -3.04400 0.00000 -0.00005 -1.99706 -0.00000 0.00001 -1.97499 -0.00001 0.00000 -1.99769 -0.00142 0.00537 0.00001 0.80375 0.00001 0.00000 -0.00000 -0.00001 -0.03744 7.29208 -0.03381 32.35904 -8.10901 0.48503 
1.78474 46.40937 -246.40828 22.16859 20.08228 -23.42985 9.08284 3.09005 2.71196 95.48297 -53.39258 80.52309 0.03006 -34.58788 0.00910 -102.57286 68.80212 73.12473 -0.03917 -37.20604 0.03110 0.29785 4.06443 -7.62239 -6.06994 1.03694 2.70487 -153.58061 -63.58963 -113.41490 0.12883 -34.25608 0.06613 126.90970 56.33599 -112.21783 0.02852 -37.22729 -0.03292 0.52917 5.82613 4.62115 -0.01768 32.01949 -0.05097 -0.82202 1.54121 -0.90454 -0.02159 24.08219 -0.03694 -1.19177 2.03202 -0.50050 1.48392 -0.13892 0.17497 -7.49055 1.07162 -7.79006 13.82937 -0.04950 0.03054 -49.19172 5.59036 -14.41702 25.16644 -0.00907 0.03725 -18.90211 -2.38955 -33.50649 22.35703 -0.00633 0.07346 -1.79917 -20.87313 10.18521 4.87700 -1.04399 3.60799 -41.57579 -8.45899 -7.72683 2.66501 0.00001 -0.00002 0.00000 0.00000 4.99818 2.54300 -0.00001 0.00000 -0.00000 0.00000 59.99853 9.23200 -0.30100 2.14400 -79.99826 0.00000 -0.00000 4.22500 -0.00000 -0.00002 -89.99806 0.00000 -0.00000 2.65400 0.00001 0.00000 -69.99848 0.00000 0.00000 8.92000 0.00001 0.00000 -79.99804 -0.00000 -0.00000 4.86300 0.00000 0.00000 -89.99781 -0.00000 0.00000 2.76501 0.00000 0.00000 -69.99835 -0.00000 0.00000 8.68900 -0.12600 -2.08700 -79.99804 -0.00000 -0.00000 4.53801 0.00001 -0.00002 -89.99781 -0.00000 0.00000 2.30500 -0.00000 0.00000 -69.99835 -0.00000 0.00000 8.39099 -0.81699 -3.75803 -79.99826 0.00000 -0.00000 3.04399 -0.00001 0.00002 -89.99806 0.00000 -0.00000 1.97499 0.00001 -0.00002 -69.99848 0.00000 0.00000 -1.41788 -1.07472 0.17437 38.68258 5.36120 6.64950 -16.35873 -0.12895 0.07941 48.02182 6.40433 12.98202 -21.44360 0.00186 0.02174 11.62951 -1.90499 67.66212 -28.42570 -0.01981 0.07021 -71.84019 8.56147 -21.82103 -4.87700 -1.04400 3.60799 40.90322 11.75652 -3.90809 -2.66502 -0.00001 -0.00001 0.00000 0.00000 -5.00537 -2.54300 0.00000 -0.00002 0.00000 -0.00000 -59.99577 -9.23200 -0.30100 2.14398 -1.99740 -0.00000 0.00001 -4.22499 -0.00001 -0.00005 -1.99709 -0.00000 0.00001 -2.65402 0.00001 0.00000 -1.99772 -0.00142 0.00537 -8.91999 0.00001 -0.00002 79.99654 -0.00000 0.00001 -4.86300 0.00000 0.00000 89.99626 -0.00000 0.00001 -2.76500 -0.00001 -0.00002 69.99623 0.00504 0.00490 -8.68899 -0.12600 -2.08704 79.99654 -0.00000 0.00001 -4.53801 -0.00001 0.00002 89.99626 -0.00000 0.00001 -2.30501 -0.00001 -0.00002 69.99623 0.00504 0.00490 -8.39101 -0.81700 -3.75800 -1.99740 -0.00000 0.00001 -3.04400 0.00000 -0.00005 -1.99709 -0.00000 0.00001 -1.97499 -0.00001 0.00000 -1.99772 -0.00142 0.00537 0.00001 0.80655 0.00001 0.00000 -0.00000 -0.00001 -0.03054 7.30347 -0.03499 32.19296 -8.26395 1.12372 
1.13987 47.46245 -246.23984 21.88565 19.50097 -23.86353 9.07888 3.00131 2.72241 92.25259 -52.29030 77.02859 0.03171 -34.53725 0.00915 -96.83728 68.58578 65.90740 -0.03781 -37.23062 0.03045 0.30405 4.05382 -7.03748 -6.03301 1.07936 2.71147 -153.00316 -64.91811 -114.56020 0.12508 -34.26160 0.04495 125.83248 57.83466 -110.48663 0.03612 -37.24951 -0.03178 0.38592 5.29879 3.93594 -0.01196 32.24538 -0.05117 -0.86371 1.47787 -0.78322 -0.01349 24.26285 -0.03464 -1.20519 1.98425 -0.40362 1.49204 -0.17700 0.17827 -8.91628 1.27448 -7.86602 13.93089 -0.02947 0.02247 -46.71227 6.42811 -13.40566 24.42207 -0.04246 0.05214 -20.18093 -2.43670 -33.55629 22.85778 -0.03830 0.05729 -1.84507 -21.74524 13.39404 4.87700 -1.04399 3.60799 -41.57581 -8.45898 -7.72685 2.66501 0.00001 -0.00002 0.00000 0.00000 4.99818 2.54300 -0.00001 0.00000 -0.00000 0.00000 59.99853 9.23200 -0.30100 2.14400 -79.99827 0.00000 -0.00000 4.22500 -0.00000 -0.00002 -89.99808 0.00000 -0.00000 2.65400 0.00001 0.00000 -69.99850 0.00000 0.00000 8.92000 0.00001 0.00000 -79.99805 -0.00000 -0.00000 4.86300 0.00000 0.00000 -89.99781 -0.00000 0.00000 2.76501 0.00000 0.00000 -69.99836 -0.00000 0.00000 8.68900 -0.12600 -2.08700 -79.99805 -0.00000 -0.00000 4.53801 0.00001 -0.00002 -89.99781 -0.00000 0.00000 2.30500 -0.00000 0.00000 -69.99836 -0.00000 0.00000 8.39099 -0.81699 -3.75803 -79.99827 0.00000 -0.00000 3.04399 -0.00001 0.00002 -89.99808 0.00000 -0.00000 1.97499 0.00001 -0.00002 -69.99850 0.00000 0.00000 -1.40387 -1.04374 0.16978 38.47639 5.44334 6.82344 -16.16320 -0.11482 0.06244 48.34457 6.46922 13.63078 -21.98796 0.00300 0.04703 12.46362 -2.38781 65.05741 -28.21785 -0.02108 0.06071 -72.77377 9.52962 -20.13805 -4.87700 -1.04400 3.60799 40.90325 11.75649 -3.90812 -2.66502 -0.00001 -0.00001 0.00000 0.00000 -5.00537 -2.54300 0.00000 -0.00002 0.00000 -0.00000 -59.99577 -9.23200 -0.30100 2.14398 -1.99743 -0.00000 0.00001 -4.22499 -0.00001 -0.00005 -1.99712 -0.00000 0.00001 -2.65402 0.00001 0.00000 -1.99774 -0.00142 0.00537 -8.91999 0.00001 -0.00002 79.99654 -0.00000 0.00001 -4.86300 0.00000 0.00000 89.99626 -0.00000 0.00001 -2.76500 -0.00001 -0.00002 69.99623 0.00504 0.00490 -8.68899 -0.12600 -2.08704 79.99654 -0.00000 0.00001 -4.53801 -0.00001 0.00002 89.99626 -0.00000 0.00001 -2.30501 -0.00001 -0.00002 69.99623 0.00504 0.00490 -8.39101 -0.81700 -3.75800 -1.99743 -0.00000 0.00001 -3.04400 0.00000 -0.00005 -1.99712 -0.00000 0.00001 -1.97499 -0.00001 0.00000 -1.99774 -0.00142 0.00537 0.00001 0.81301 0.00001 0.00000 -0.00000 -0.00001 -0.02621 7.36851 -0.04096 31.88332 -8.37480 1.89016 
